<svg width="20" height="20" viewBox="0 0 20 20" fill="none" xmlns="http://www.w3.org/2000/svg">
<path fill-rule="evenodd" clip-rule="evenodd" d="M0 10C0 4.47733 4.47733 0 10 0C15.5227 0 20 4.47733 20 10C20 15.5227 15.5227 20 10 20C4.47733 20 0 15.5227 0 10ZM8.9 16C8.9 16.6133 9.20667 16.92 9.82 16.92H10.14C10.7533 16.92 11.06 16.6133 11.06 16V11.2H16.34C16.66 11.2 16.8867 11.1467 17.02 11.04C17.18 10.9067 17.26 10.6933 17.26 10.4V10.12C17.26 9.53333 16.9533 9.24 16.34 9.24H11.06V4.44C11.06 3.82667 10.7533 3.52 10.14 3.52H9.82C9.20667 3.52 8.9 3.82667 8.9 4.44V9.24H3.62C3.00667 9.24 2.7 9.53333 2.7 10.12V10.4C2.7 10.6933 2.76667 10.9067 2.9 11.04C3.06 11.1467 3.3 11.2 3.62 11.2H8.9V16Z" fill="#2F57D3"/>
</svg>
