<svg width="24" height="24" viewBox="0 0 24 24" fill="none" xmlns="http://www.w3.org/2000/svg">
<path d="M17.3011 10.5H23.1991C23.2704 10.5001 23.3402 10.5204 23.4003 10.5586C23.4604 10.5969 23.5084 10.6515 23.5386 10.716C23.5688 10.7805 23.58 10.8523 23.5709 10.923C23.5618 10.9937 23.5327 11.0603 23.4871 11.115L20.5381 14.655C20.5029 14.6972 20.4589 14.7312 20.4091 14.7545C20.3594 14.7778 20.3051 14.7899 20.2501 14.7899C20.1952 14.7899 20.1409 14.7778 20.0911 14.7545C20.0414 14.7312 19.9973 14.6972 19.9621 14.655L17.0131 11.115C16.9675 11.0603 16.9385 10.9937 16.9293 10.923C16.9202 10.8523 16.9314 10.7805 16.9617 10.716C16.9919 10.6515 17.0399 10.5969 17.1 10.5586C17.1601 10.5204 17.2299 10.5001 17.3011 10.5ZM0.801129 13.5H6.69913C6.77038 13.5 6.84016 13.4797 6.90028 13.4414C6.9604 13.4032 7.00838 13.3486 7.0386 13.2841C7.06881 13.2195 7.08002 13.1477 7.07091 13.0771C7.06179 13.0064 7.03273 12.9398 6.98713 12.885L4.03813 9.34504C4.00294 9.30283 3.9589 9.26888 3.90913 9.24558C3.85936 9.22228 3.80508 9.21021 3.75013 9.21021C3.69518 9.21021 3.6409 9.22228 3.59113 9.24558C3.54136 9.26888 3.49732 9.30283 3.46213 9.34504L0.513129 12.885C0.467526 12.9398 0.438465 13.0064 0.42935 13.0771C0.420236 13.1477 0.431444 13.2195 0.461663 13.2841C0.491882 13.3486 0.539861 13.4032 0.599981 13.4414C0.660101 13.4797 0.729874 13.5 0.801129 13.5Z" fill="white"/>
<path fill-rule="evenodd" clip-rule="evenodd" d="M12 4.50059C9.67201 4.50059 7.59001 5.56109 6.21451 7.22759C6.15309 7.3072 6.07629 7.37365 5.98867 7.42298C5.90106 7.47231 5.80442 7.50353 5.7045 7.51476C5.60458 7.52599 5.50342 7.51702 5.40703 7.48838C5.31065 7.45973 5.22101 7.412 5.14345 7.34801C5.06588 7.28403 5.00198 7.2051 4.95553 7.11593C4.90908 7.02675 4.88103 6.92914 4.87306 6.82891C4.86509 6.72867 4.87736 6.62786 4.90913 6.53246C4.9409 6.43707 4.99153 6.34903 5.05801 6.27359C6.1563 4.94388 7.6134 3.95761 9.25601 3.43208C10.8986 2.90654 12.6576 2.86387 14.3238 3.30913C15.9899 3.75438 17.4932 4.66884 18.6546 5.94372C19.8161 7.21861 20.587 8.80027 20.8755 10.5006H19.35C19.0037 8.80681 18.0831 7.28458 16.7438 6.19131C15.4046 5.09804 13.7288 4.5008 12 4.50059ZM4.65001 13.5006C4.93398 14.8875 5.60454 16.1658 6.58423 17.1878C7.56392 18.2098 8.81275 18.9337 10.1865 19.276C11.5602 19.6183 13.0027 19.565 14.3473 19.1222C15.692 18.6793 16.884 17.8651 17.7855 16.7736C17.8469 16.694 17.9237 16.6275 18.0113 16.5782C18.099 16.5289 18.1956 16.4977 18.2955 16.4864C18.3954 16.4752 18.4966 16.4842 18.593 16.5128C18.6894 16.5415 18.779 16.5892 18.8566 16.6532C18.9341 16.7172 18.998 16.7961 19.0445 16.8853C19.0909 16.9744 19.119 17.072 19.127 17.1723C19.1349 17.2725 19.1227 17.3733 19.0909 17.4687C19.0591 17.5641 19.0085 17.6522 18.942 17.7276C17.8437 19.0573 16.3866 20.0436 14.744 20.5691C13.1014 21.0946 11.3424 21.1373 9.67625 20.6921C8.01009 20.2468 6.50687 19.3323 5.3454 18.0575C4.18392 16.7826 3.41306 15.2009 3.12451 13.5006H4.65001Z" fill="white"/>
</svg>
