<svg width="18" height="18" viewBox="0 0 18 18" fill="none" xmlns="http://www.w3.org/2000/svg">
<path fill-rule="evenodd" clip-rule="evenodd" d="M0 9C0 6.61305 0.948212 4.32387 2.63604 2.63604C4.32387 0.948212 6.61305 0 9 0C11.3869 0 13.6761 0.948212 15.364 2.63604C17.0518 4.32387 18 6.61305 18 9C18 11.3869 17.0518 13.6761 15.364 15.364C13.6761 17.0518 11.3869 18 9 18C6.61305 18 4.32387 17.0518 2.63604 15.364C0.948212 13.6761 0 11.3869 0 9ZM8.4375 1.21162C7.68375 1.44113 6.93563 2.13412 6.31462 3.2985C6.11002 3.68561 5.93405 4.08718 5.78813 4.5H8.4375V1.21162ZM4.60125 4.5H2.53688C3.39976 3.26207 4.599 2.29706 5.99288 1.719C5.74041 2.04974 5.51577 2.40081 5.32125 2.76863C5.04338 3.29062 4.8015 3.87112 4.60125 4.5ZM3.9465 8.4375H1.14525C1.215 7.43625 1.47263 6.48787 1.88325 5.625H4.2975C4.09406 6.54968 3.97656 7.49119 3.9465 8.4375ZM5.45288 5.625H8.4375V8.4375H5.07375C5.10459 7.48965 5.23124 6.54736 5.45175 5.625H5.45288ZM9.5625 5.625V8.4375H12.9262C12.8951 7.48961 12.7681 6.54731 12.5471 5.625H9.5625ZM5.07375 9.5625H8.4375V12.375H5.45288C5.2316 11.4527 5.10421 10.5104 5.07262 9.5625H5.07375ZM9.5625 9.5625V12.375H12.5471C12.7575 11.5144 12.8914 10.566 12.9274 9.5625H9.5625ZM5.78813 13.5H8.4375V16.7884C7.68375 16.5589 6.93563 15.8659 6.31462 14.7015C6.11002 14.3144 5.93405 13.9128 5.78813 13.5ZM5.99288 16.281C5.7404 15.9503 5.51575 15.5992 5.32125 15.2314C5.02974 14.677 4.78876 14.0976 4.60125 13.5H2.53688C3.39971 14.738 4.59897 15.703 5.99288 16.281ZM4.2975 12.375H1.88325C1.46376 11.4918 1.21344 10.5379 1.14525 9.5625H3.9465C3.98025 10.5491 4.10175 11.4952 4.2975 12.375ZM12.0071 16.281C13.401 15.703 14.6003 14.738 15.4631 13.5H13.3988C13.2112 14.0976 12.9703 14.677 12.6788 15.2314C12.4843 15.5992 12.2596 15.9503 12.0071 16.281ZM9.5625 13.5H12.2119C12.066 13.9128 11.89 14.3144 11.6854 14.7015C11.0644 15.8659 10.3151 16.5578 9.5625 16.7884V13.5ZM13.7025 12.375H16.1168C16.5274 11.5121 16.785 10.5638 16.8547 9.5625H14.0535C14.0235 10.5088 13.906 11.4503 13.7025 12.375ZM16.8547 8.4375H14.0535C14.0235 7.49118 13.906 6.54967 13.7025 5.625H16.1168C16.5274 6.48787 16.785 7.43625 16.8547 8.4375ZM12.6788 2.76863C12.9566 3.29062 13.1985 3.87112 13.3988 4.5H15.4631C14.6003 3.26203 13.401 2.297 12.0071 1.719C12.2524 2.0385 12.4774 2.39175 12.6788 2.76863ZM12.2119 4.5H9.5625V1.21162C10.3162 1.44113 11.0644 2.13412 11.6854 3.2985C11.88 3.663 12.0566 4.06575 12.2119 4.5Z" fill="black"/>
</svg>
