<svg width="29" height="29" viewBox="0 0 29 29" fill="none" xmlns="http://www.w3.org/2000/svg">
<rect x="0.6875" y="0.6875" width="27.625" height="27.625" rx="13.8125" fill="#F5F5F5"/>
<path fill-rule="evenodd" clip-rule="evenodd" d="M8.38517 7.0112C8.56008 6.83624 8.7702 6.70048 9.00157 6.61293C9.23294 6.52537 9.48028 6.48802 9.72719 6.50335C9.97409 6.51869 10.2149 6.58635 10.4337 6.70186C10.6524 6.81737 10.8442 6.97808 10.9961 7.17333L12.789 9.4795C13.1185 9.90191 13.2348 10.4534 13.1047 10.9729L12.5575 13.1628C12.5291 13.2764 12.5305 13.3955 12.5617 13.5084C12.5929 13.6213 12.6529 13.7242 12.7356 13.807L15.193 16.2636C15.2758 16.3464 15.3787 16.4063 15.4916 16.4375C15.6045 16.4687 15.7235 16.4702 15.8372 16.4417L18.0257 15.8945C18.2824 15.8304 18.5503 15.8255 18.8092 15.8802C19.0681 15.9349 19.3111 16.0478 19.52 16.2103L21.8258 18.0034C22.6546 18.6476 22.7313 19.8733 21.989 20.6146L20.9545 21.6493C20.2153 22.3885 19.1093 22.7138 18.078 22.3512C15.4398 21.4224 13.0445 19.9117 11.0697 17.9308C9.08871 15.9559 7.57773 13.5603 6.64883 10.9217C6.2862 9.89017 6.6115 8.78402 7.35062 8.04375L8.38517 7.01013V7.0112Z" fill="#0077FF"/>
</svg>
