<svg width="24" height="24" viewBox="0 0 24 24" fill="none" xmlns="http://www.w3.org/2000/svg">
<path d="M4.7005 5.30165L4.7 15.4583C4.7 17.557 6.45361 19.2742 8.67056 19.4082L8.95 19.4167L16.4545 19.4178C16.1041 20.3396 15.1598 21 14.05 21H8.1C5.28335 21 3 18.8734 3 16.25V7.54167C3 6.5074 3.70982 5.62755 4.7005 5.30165ZM17.45 2C18.8583 2 20 3.06332 20 4.375V15.4583C20 16.77 18.8583 17.8333 17.45 17.8333H8.95C7.54167 17.8333 6.4 16.77 6.4 15.4583V4.375C6.4 3.06332 7.54167 2 8.95 2H17.45Z" fill="black"/>
</svg>
