<svg width="24" height="24" viewBox="0 0 24 24" fill="none" xmlns="http://www.w3.org/2000/svg">
<path d="M12.0013 0.000951857C15.0176 0.00350571 17.5266 2.16355 17.5249 5.08669C17.5233 7.95467 15.1092 10.1852 11.9733 10.1735C8.82868 10.1617 6.45468 7.91381 6.46291 5.07341C6.47169 2.14772 8.98622 -0.00313431 12.0013 0.000951857Z" fill="#070707"/>
<path d="M11.9874 10.6537C13.4058 10.6655 14.7714 10.8595 16.0657 11.4127C16.2299 11.4827 16.4083 11.5251 16.5823 11.5741C16.8715 11.6564 17.0121 11.8402 16.9572 12.112C16.8885 12.4511 16.8331 12.8035 16.6866 13.1156C16.3199 13.8981 15.9038 14.6612 15.5103 15.433C15.4307 15.5888 15.3192 15.5055 15.2111 15.483C14.4668 15.3293 13.7291 15.1291 12.9765 15.0331C11.5829 14.8553 10.2133 15.0346 8.8839 15.4514C8.6369 15.529 8.52547 15.5173 8.39373 15.2782C7.92332 14.4268 7.42547 13.5891 7.13291 12.6636C7.12028 12.6232 7.10546 12.5829 7.09448 12.5415C6.90511 11.8254 6.98635 11.6947 7.74054 11.4704C8.41514 11.2702 9.07492 11.0067 9.76434 10.8754C10.4911 10.737 11.2453 10.7222 11.9874 10.6532V10.6537Z" fill="#070707"/>
<path d="M4.25576 17.6224C3.94948 18.2445 4.56644 19.1904 5.16255 19.4234C5.76634 19.6593 6.01994 20.1665 5.87173 20.7631C5.67193 21.5671 5.33161 22.3082 4.7635 22.9487C4.42812 23.3272 4.01864 23.6158 3.53725 23.8206C3.0652 24.0213 2.59808 24.0387 2.10956 23.8645C1.46515 23.6347 0.963449 23.2286 0.449676 22.8164C-0.00316833 22.4533 -0.083857 22.0686 0.0742269 21.5579C0.405764 20.4863 0.8877 19.4887 1.6622 18.6322C2.16609 18.0749 2.81929 17.7337 3.59873 17.6275C3.80073 17.5999 4.01095 17.6234 4.25576 17.6234V17.6224Z" fill="#070707"/>
<path d="M19.7586 17.6573C20.2455 17.5302 20.6835 17.6492 21.1067 17.8106C21.6836 18.0307 22.1584 18.3826 22.5251 18.8536C23.1947 19.7142 23.675 20.6566 23.9412 21.6924C24.0395 22.0755 24.0582 22.4157 23.6569 22.69C23.3062 22.9295 23.0235 23.259 22.6623 23.4796C21.4854 24.1993 20.7142 24.21 19.5615 23.2666C18.7014 22.5628 18.2744 21.6097 18.0877 20.5769C18.0153 20.1759 18.2436 19.5972 18.803 19.4139C19.5226 19.1774 19.9628 18.3101 19.7586 17.6573Z" fill="#070707"/>
<path d="M6.84333 19.3975C6.34219 19.0446 5.83281 18.6855 5.32178 18.3259C8.30506 15.08 14.9424 14.5861 18.6579 18.28C18.4191 18.4822 18.1946 18.7014 17.9383 18.8822C17.6792 19.0655 17.3888 19.2106 17.1177 19.3695C14.4314 16.8851 9.55052 16.9035 6.84279 19.3975H6.84333Z" fill="#070707"/>
<path d="M7.68499 15.9178C7.04991 16.3499 6.42581 16.7744 5.79786 17.2019C4.9542 16.6635 4.0551 16.4853 3.07641 16.8152C2.49073 15.5117 4.11822 12.6586 5.79457 12.0257C6.18594 13.413 6.97142 14.6353 7.68499 15.9173V15.9178Z" fill="#070707"/>
<path d="M20.9253 16.8188C19.9499 16.4904 19.0486 16.6559 18.1929 17.2034C17.566 16.777 16.937 16.3489 16.3052 15.9194C17.0078 14.646 17.8004 13.4258 18.1896 12.036C19.7534 12.4681 21.4177 15.3524 20.9253 16.8193V16.8188Z" fill="#070707"/>
</svg>
