<svg width="22" height="25" viewBox="0 0 22 25" fill="none" xmlns="http://www.w3.org/2000/svg">
<g clip-path="url(#clip0_72_1119)">
<path d="M9.0122 6.05123C8.88745 6.05123 8.78152 6.05677 8.67607 6.05022C8.35183 6.03059 8.18996 5.75317 8.34886 5.46468C8.41916 5.3368 8.52014 5.2069 8.63994 5.13038C8.80726 5.02364 8.83349 4.89274 8.83151 4.713C8.82458 4.05848 8.82161 3.40396 8.83597 2.74995C8.84636 2.28071 9.03299 1.88045 9.41664 1.61009C10.5171 0.834737 11.6948 0.23812 13.0412 0.0478069C14.1303 -0.106256 15.1614 0.120307 16.1376 0.588538C16.7307 0.873001 17.296 1.22342 17.8554 1.57434C18.2761 1.83866 18.4781 2.26158 18.487 2.76153C18.4994 3.44928 18.4959 4.13753 18.4915 4.82527C18.4905 4.96272 18.5212 5.05284 18.641 5.13541C18.7608 5.21798 18.8692 5.33277 18.9509 5.45512C19.133 5.7275 18.9835 6.0462 18.6613 6.09151C18.5494 6.10712 18.435 6.10309 18.3088 6.10913C18.2846 6.40014 18.2573 6.67352 18.243 6.94842C18.24 7.00481 18.2692 7.08285 18.3108 7.11809C18.7024 7.4519 18.7618 7.88136 18.5845 8.32442C18.4281 8.71511 18.1935 9.07359 17.9945 9.44666C17.9247 9.57756 17.8415 9.70343 17.79 9.84189C17.5598 10.4591 17.247 11.023 16.8114 11.5169C16.7485 11.5884 16.7094 11.7052 16.7054 11.8029C16.6921 12.1211 16.7203 12.4423 16.694 12.7585C16.6732 13.0108 16.7653 13.1114 16.9891 13.2086C18.0623 13.6753 19.134 14.1466 20.1879 14.6556C21.2225 15.1556 21.8136 16.0125 21.9794 17.1679C21.9903 17.2425 21.9973 17.318 21.9973 17.3935C21.9982 18.6774 21.9997 19.9612 21.9973 21.2451C21.9968 21.5905 21.8646 21.7103 21.5027 21.7103C17.4024 21.7103 13.3021 21.7103 9.20179 21.7103C9.0617 21.7103 8.92161 21.7103 8.8028 21.7103C8.59291 22.1322 8.42015 22.5581 8.18253 22.9423C7.23703 24.4703 5.37375 25.2703 3.64363 24.9169C1.80609 24.5413 0.372983 23.0782 0.0670567 21.2662C-0.362627 18.7181 1.28532 16.387 3.8154 15.9636C4.39062 15.8675 4.96238 15.8775 5.53414 16.0014C5.6079 16.0175 5.74502 15.9797 5.77472 15.9239C6.1945 15.1263 6.91675 14.7105 7.68107 14.358C8.58697 13.9407 9.50228 13.5429 10.4201 13.1527C10.6097 13.0722 10.7032 12.9775 10.6656 12.7701C10.6641 12.762 10.6646 12.7535 10.6656 12.7449C10.7225 12.0642 10.6537 11.4495 10.1399 10.9067C9.86365 10.6147 9.75573 10.1586 9.56613 9.77946C9.49237 9.63194 9.4003 9.49449 9.32209 9.34899C9.11764 8.96937 8.87013 8.60535 8.72657 8.20308C8.5835 7.80131 8.65281 7.39249 9.00576 7.08184C9.05527 7.03854 9.07903 6.93684 9.07606 6.86434C9.06467 6.60556 9.03646 6.34778 9.0117 6.05022L9.0122 6.05123ZM8.92359 20.9148H21.2616C21.2616 20.8045 21.2616 20.7129 21.2616 20.6213C21.2616 19.6314 21.2592 18.6416 21.2621 17.6523C21.2656 16.668 20.8513 15.9113 20.0122 15.442C19.3296 15.0604 18.6053 14.7548 17.9019 14.4114C17.7509 14.3379 17.6618 14.3656 17.5559 14.5091C16.8975 15.3997 16.2272 16.2818 15.5589 17.1654C15.251 17.5727 15.0649 17.5843 14.6966 17.2314C14.356 16.9051 14.013 16.5814 13.6615 16.2476C13.2912 16.5995 12.9353 16.9358 12.5818 17.2747C12.2645 17.5788 12.0705 17.5687 11.8101 17.2238C11.122 16.3135 10.4374 15.4002 9.74434 14.494C9.69781 14.4331 9.56811 14.3661 9.51762 14.3903C8.70578 14.7739 7.89344 15.1586 7.09694 15.5739C6.78161 15.7386 6.5435 16.015 6.38509 16.3478C8.4543 17.8245 8.87161 18.5731 8.92408 20.9143L8.92359 20.9148ZM9.7488 6.14488C9.77454 6.52097 9.79385 6.86333 9.82305 7.20519C9.84087 7.41111 9.78246 7.56316 9.5894 7.65479C9.40079 7.74441 9.34238 7.90402 9.42357 8.09282C9.52208 8.32089 9.61663 8.55853 9.76068 8.7564C10.0027 9.08919 10.1765 9.44867 10.3384 9.82678C11.1364 11.6947 12.662 12.3572 14.4441 12.0234C15.8381 11.7621 16.6396 10.8 17.091 9.48694C17.1386 9.34898 17.2207 9.22211 17.2935 9.09372C17.4816 8.76193 17.6871 8.43971 17.8583 8.09987C17.9524 7.91257 17.892 7.73888 17.6806 7.65127C17.5034 7.57776 17.4381 7.43629 17.4485 7.25051C17.4564 7.10853 17.4643 6.96655 17.4757 6.82507C17.4935 6.60354 17.5143 6.38252 17.5351 6.14488H9.74929H9.7488ZM17.6945 4.62992C17.6945 4.07711 17.6841 3.54997 17.6979 3.02384C17.7078 2.64221 17.5653 2.34919 17.2499 2.16038C16.7401 1.85528 16.2346 1.53406 15.6985 1.28384C14.7936 0.861421 13.8461 0.651976 12.8412 0.860414C11.7646 1.08345 10.8082 1.57585 9.92107 2.21275C9.77058 2.32049 9.62554 2.54554 9.61514 2.72478C9.57801 3.34758 9.60079 3.9744 9.60079 4.6259C12.3002 3.35915 14.9887 3.35966 17.695 4.62992H17.6945ZM7.83304 21.9902C8.33302 20.797 8.22956 19.6586 7.62563 18.5772C7.02021 17.4922 6.07273 16.8895 4.82625 16.7103C4.82625 17.4786 4.82377 18.2147 4.83169 18.9502C4.83219 19.0026 4.90199 19.0746 4.95644 19.1023C5.59899 19.4295 5.91184 19.9461 5.86284 20.6832C5.85888 20.7446 5.88462 20.8413 5.92818 20.8675C6.54993 21.2415 7.17763 21.6061 7.83304 21.9902ZM1.50165 22.6437C3.07979 24.8268 6.11332 24.6239 7.45435 22.6367C6.82715 22.2696 6.20292 21.9016 5.57324 21.5421C5.52869 21.5164 5.43266 21.5391 5.38365 21.5738C4.74754 22.0255 4.22974 22.0265 3.5867 21.5814C3.53027 21.5421 3.41344 21.5315 3.35602 21.5643C2.73872 21.9147 2.12835 22.2767 1.50115 22.6437H1.50165ZM4.09262 16.7073C2.76347 16.9197 1.78975 17.5843 1.19572 18.7745C0.67495 19.8172 0.678415 20.8861 1.10513 21.9847C1.75114 21.6071 2.36596 21.2521 2.97435 20.8851C3.03078 20.8508 3.07732 20.7406 3.07237 20.6696C3.0194 19.9224 3.30305 19.421 3.96787 19.0937C4.02133 19.0675 4.08717 18.9935 4.08767 18.9412C4.09559 18.2126 4.09311 17.4846 4.09311 16.7068L4.09262 16.7073ZM11.4131 12.2933C11.4086 12.3819 11.4116 12.4489 11.4012 12.5133C11.3265 12.977 11.4923 13.3013 11.8636 13.5973C12.4843 14.0917 13.0571 14.648 13.6442 15.1732C13.6763 15.1601 13.6947 15.1576 13.706 15.147C14.412 14.5176 15.1184 13.8883 15.8223 13.2564C15.8629 13.2202 15.9119 13.1653 15.9134 13.118C15.9223 12.8496 15.9178 12.5803 15.9178 12.3003C14.4001 13.1054 12.9219 13.0737 11.4131 12.2938V12.2933ZM9.98938 5.28595H17.2499C14.8288 4.10732 12.4086 4.13098 9.98938 5.28595ZM13.0853 15.7386C12.3913 15.1072 11.7116 14.4874 11.0279 13.8722C10.9883 13.8364 10.9027 13.8128 10.8567 13.8309C10.6923 13.8959 10.5354 13.9809 10.3641 14.064C10.9987 14.9063 11.616 15.7255 12.2403 16.5537C12.5378 16.2662 12.8051 16.0084 13.0853 15.7381V15.7386ZM16.9227 14.0217C16.7886 13.9558 16.6802 13.9145 16.5841 13.8531C16.4213 13.7499 16.3 13.7645 16.1604 13.914C15.9678 14.1194 15.7436 14.2941 15.5352 14.4839C15.0951 14.8842 14.6565 15.2865 14.2021 15.7013C14.4931 15.9818 14.7654 16.2436 15.0476 16.5149C15.6753 15.6802 16.2901 14.8635 16.9232 14.0217H16.9227ZM5.12624 20.4501C5.12277 20.0866 4.83268 19.7941 4.48072 19.7991C4.13321 19.8041 3.8253 20.1324 3.83372 20.4889C3.84263 20.8468 4.13717 21.1257 4.49755 21.1182C4.851 21.1106 5.1302 20.8146 5.12624 20.4501Z" fill="black"/>
<path d="M13.6449 18.7856C13.2335 18.7871 13.0612 18.6482 13.0924 18.3421C13.1202 18.0697 13.2855 17.9866 13.7726 17.9992C14.0582 18.0068 14.2201 18.1392 14.2315 18.3758C14.2424 18.5983 14.1112 18.7589 13.8904 18.7841C13.8097 18.7932 13.7271 18.7856 13.6449 18.7856Z" fill="black"/>
<path d="M13.672 19.6002C14.0759 19.6002 14.2601 19.7482 14.2299 20.0493C14.2017 20.3338 13.9601 20.443 13.475 20.3912C13.2032 20.362 13.0666 20.2029 13.0918 19.9451C13.1171 19.6908 13.2695 19.6002 13.672 19.6002Z" fill="black"/>
</g>
<defs>
<clipPath id="clip0_72_1119">
<rect width="22" height="25" fill="white"/>
</clipPath>
</defs>
</svg>
