<svg width="20" height="20" viewBox="0 0 20 20" fill="none" xmlns="http://www.w3.org/2000/svg">
<g clip-path="url(#clip0_72_1206)">
<path d="M10.0013 1.0415C5.0538 1.0415 1.04297 5.05234 1.04297 9.99984C1.04297 12.2873 1.90755 14.3682 3.3188 15.9511C2.91422 17.1182 2.0713 17.4823 1.04297 17.854C1.98464 18.7632 3.8213 19.004 5.46922 17.7178C6.84158 18.5296 8.40679 18.958 10.0013 18.9582C14.9488 18.9582 18.9596 14.9473 18.9596 9.99984C18.9596 5.05234 14.9488 1.0415 10.0013 1.0415Z" stroke="black" stroke-linecap="round" stroke-linejoin="round"/>
<path d="M15.6078 9.4987C15.6078 8.82929 15.0651 8.28662 14.3957 8.28662C13.7263 8.28662 13.1836 8.82929 13.1836 9.4987V10.2866C13.1836 10.956 13.7263 11.4987 14.3957 11.4987C15.0651 11.4987 15.6078 10.956 15.6078 10.2866V9.4987Z" stroke="black" stroke-linecap="round" stroke-linejoin="round"/>
<path d="M7.04883 9.49863C7.04877 9.33943 7.08008 9.18177 7.14097 9.03466C7.20186 8.88756 7.29113 8.75389 7.40369 8.64129C7.51625 8.52869 7.64989 8.43938 7.79697 8.37844C7.94406 8.3175 8.1017 8.28613 8.26091 8.28613C8.42012 8.28613 8.57777 8.3175 8.72485 8.37844C8.87194 8.43938 9.00557 8.52869 9.11813 8.64129C9.23069 8.75389 9.31996 8.88756 9.38085 9.03466C9.44174 9.18177 9.47305 9.33943 9.473 9.49863V11.4986M7.04883 8.28655V11.4986" stroke="black" stroke-linecap="round" stroke-linejoin="round"/>
<path d="M9.47266 9.49863C9.4726 9.33943 9.50391 9.18177 9.5648 9.03466C9.62569 8.88756 9.71496 8.75389 9.82752 8.64129C9.94008 8.52869 10.0737 8.43938 10.2208 8.37844C10.3679 8.3175 10.5255 8.28613 10.6847 8.28613C10.8439 8.28613 11.0016 8.3175 11.1487 8.37844C11.2958 8.43938 11.4294 8.52869 11.542 8.64129C11.6545 8.75389 11.7438 8.88756 11.8047 9.03466C11.8656 9.18177 11.8969 9.33943 11.8968 9.49863V11.4986" stroke="black" stroke-linecap="round" stroke-linejoin="round"/>
<path d="M5.65039 7.47021C5.82298 7.47021 5.96289 7.3303 5.96289 7.15771C5.96289 6.98513 5.82298 6.84521 5.65039 6.84521C5.4778 6.84521 5.33789 6.98513 5.33789 7.15771C5.33789 7.3303 5.4778 7.47021 5.65039 7.47021Z" fill="black"/>
<path d="M5.65039 8.28662V11.4987" stroke="black" stroke-linecap="round" stroke-linejoin="round"/>
</g>
<defs>
<clipPath id="clip0_72_1206">
<rect width="20" height="20" fill="white"/>
</clipPath>
</defs>
</svg>
