<svg width="113" height="40" viewBox="0 0 113 40" fill="none" xmlns="http://www.w3.org/2000/svg">
<path d="M111.137 26.9495L109.761 26.8634V29.836C109.761 30.2237 109.818 30.5038 109.93 30.6761C110.058 30.8484 110.283 30.9346 110.608 30.9346C110.947 30.9346 111.201 30.949 111.37 30.9777C111.554 30.992 111.744 31.0567 111.942 31.1715C112.266 31.3582 112.429 31.8393 112.429 32.6148C112.429 33.5195 112.231 34.0724 111.836 34.2734C111.624 34.374 111.434 34.4386 111.264 34.4673C111.109 34.4817 110.876 34.4888 110.566 34.4888C109.098 34.4888 107.983 34.1514 107.22 33.4764C106.458 32.8015 106.077 31.6598 106.077 30.0514V26.8634C105.809 26.9064 105.52 26.928 105.209 26.928C104.899 26.928 104.638 26.8059 104.426 26.5618C104.228 26.3177 104.129 25.9012 104.129 25.3124C104.129 24.7236 104.165 24.3 104.235 24.0415C104.306 23.7687 104.405 23.5748 104.532 23.4599C104.757 23.2732 105.04 23.1799 105.379 23.1799L106.077 23.266V21.0473C106.077 20.717 106.084 20.4729 106.098 20.3149C106.127 20.157 106.197 19.9846 106.31 19.798C106.494 19.4389 107.037 19.2594 107.94 19.2594C108.9 19.2594 109.472 19.5251 109.655 20.0564C109.726 20.2862 109.761 20.6524 109.761 21.155V23.266C110.382 23.2086 110.848 23.1799 111.158 23.1799C111.483 23.1799 111.723 23.1942 111.878 23.223C112.048 23.2373 112.238 23.3019 112.45 23.4168C112.817 23.6035 113 24.1564 113 25.0755C113 25.9802 112.81 26.5331 112.429 26.7341C112.217 26.8346 112.027 26.8993 111.857 26.928C111.702 26.9424 111.462 26.9495 111.137 26.9495Z" fill="#EB6937"/>
<path d="M94.7138 33.4783C94.4456 33.306 94.3115 33.0331 94.3115 32.6598C94.3115 32.2864 94.5797 31.7191 95.116 30.958C95.2713 30.7139 95.5183 30.5918 95.8571 30.5918C96.2099 30.5918 96.6828 30.7713 97.2756 31.1304C97.8684 31.475 98.4048 31.6473 98.8846 31.6473C99.7456 31.6473 100.176 31.475 100.176 31.1304C100.176 30.8575 99.7033 30.6565 98.7576 30.5272C97.8684 30.398 96.9862 30.0605 96.1111 29.5148C95.7018 29.2563 95.3631 28.8542 95.0949 28.3085C94.8267 27.7484 94.6926 27.0879 94.6926 26.3267C94.6926 24.0578 96.224 22.9233 99.2869 22.9233C100.289 22.9233 101.319 23.1674 102.378 23.6557C102.872 23.8854 103.119 24.1727 103.119 24.5173C103.119 24.862 102.964 25.2856 102.653 25.7882C102.343 26.2908 102.025 26.5421 101.701 26.5421C101.531 26.5421 101.214 26.4344 100.748 26.219C100.296 26.0036 99.8021 25.8959 99.2657 25.8959C98.433 25.8959 98.0166 26.0539 98.0166 26.3698C98.0166 26.8006 98.4965 27.0807 99.4563 27.2099C100.388 27.3104 101.291 27.5833 102.166 28.0285C102.576 28.2295 102.914 28.5814 103.183 29.084C103.465 29.5722 103.606 30.1897 103.606 30.9365C103.606 31.6832 103.465 32.3223 103.183 32.8536C102.914 33.3706 102.533 33.7584 102.039 34.0168C101.136 34.462 99.9997 34.6846 98.6306 34.6846C97.2756 34.6846 95.97 34.2825 94.7138 33.4783Z" fill="#EB6937"/>
<path d="M89.2339 25.0328C89.2339 24.7025 89.2409 24.4584 89.2551 24.3004C89.2833 24.1281 89.3468 23.9342 89.4456 23.7188C89.6432 23.3454 90.1937 23.1587 91.097 23.1587C91.7745 23.1587 92.2544 23.2808 92.5367 23.5249C92.7766 23.726 92.9037 24.0347 92.9178 24.4512C92.9319 24.5948 92.939 24.803 92.939 25.0759V32.6152C92.939 32.9455 92.9248 33.1968 92.8966 33.3691C92.8825 33.5271 92.819 33.7138 92.7061 33.9292C92.5226 34.3026 91.9792 34.4893 91.0758 34.4893C90.1866 34.4893 89.6432 34.2954 89.4456 33.9076C89.3468 33.6922 89.2833 33.5056 89.2551 33.3476C89.2409 33.1896 89.2339 32.9383 89.2339 32.5937V25.0328ZM92.7061 21.0477C92.6073 21.2488 92.4238 21.3924 92.1556 21.4785C91.8874 21.5647 91.5275 21.6078 91.0758 21.6078C90.6383 21.6078 90.2854 21.5647 90.0172 21.4785C89.7491 21.3924 89.5585 21.2416 89.4456 21.0262C89.3468 20.8108 89.2833 20.6241 89.2551 20.4661C89.2409 20.2938 89.2339 20.0425 89.2339 19.7122C89.2339 19.3819 89.2409 19.1378 89.2551 18.9798C89.2833 18.8075 89.3468 18.6208 89.4456 18.4197C89.6432 18.032 90.1937 17.8381 91.097 17.8381C91.9862 17.8381 92.5226 18.032 92.7061 18.4197C92.819 18.6351 92.8825 18.829 92.8966 19.0013C92.9248 19.1593 92.939 19.4034 92.939 19.7337C92.939 20.064 92.9248 20.3153 92.8966 20.4877C92.8825 20.6456 92.819 20.8323 92.7061 21.0477Z" fill="#EB6937"/>
<path d="M78.9599 33.4783C78.6917 33.306 78.5576 33.0331 78.5576 32.6598C78.5576 32.2864 78.8258 31.7191 79.3621 30.958C79.5174 30.7139 79.7644 30.5918 80.1032 30.5918C80.456 30.5918 80.9289 30.7713 81.5217 31.1304C82.1145 31.475 82.6508 31.6473 83.1307 31.6473C83.9917 31.6473 84.4222 31.475 84.4222 31.1304C84.4222 30.8575 83.9494 30.6565 83.0037 30.5272C82.1145 30.398 81.2323 30.0605 80.3572 29.5148C79.9479 29.2563 79.6092 28.8542 79.341 28.3085C79.0728 27.7484 78.9387 27.0879 78.9387 26.3267C78.9387 24.0578 80.4701 22.9233 83.533 22.9233C84.5351 22.9233 85.5655 23.1674 86.6241 23.6557C87.1181 23.8854 87.3651 24.1727 87.3651 24.5173C87.3651 24.862 87.2099 25.2856 86.8993 25.7882C86.5888 26.2908 86.2712 26.5421 85.9466 26.5421C85.7772 26.5421 85.4596 26.4344 84.9939 26.219C84.5422 26.0036 84.0482 25.8959 83.5118 25.8959C82.6791 25.8959 82.2627 26.0539 82.2627 26.3698C82.2627 26.8006 82.7426 27.0807 83.7024 27.2099C84.6339 27.3104 85.5373 27.5833 86.4124 28.0285C86.8217 28.2295 87.1605 28.5814 87.4286 29.084C87.7109 29.5722 87.8521 30.1897 87.8521 30.9365C87.8521 31.6832 87.7109 32.3223 87.4286 32.8536C87.1605 33.3706 86.7794 33.7584 86.2853 34.0168C85.382 34.462 84.2458 34.6846 82.8767 34.6846C81.5217 34.6846 80.2161 34.2825 78.9599 33.4783Z" fill="#2F57D3"/>
<path d="M74.0892 28.8035L76.905 31.173C77.2579 31.4746 77.4767 31.7043 77.5613 31.8623C77.6601 32.0203 77.7095 32.171 77.7095 32.3147C77.7095 32.6593 77.4908 33.126 77.0532 33.7148C76.5733 34.318 76.1499 34.6195 75.7829 34.6195C75.4724 34.6195 75.0419 34.4113 74.4914 33.9948L74.2797 33.8441C73.9551 33.5712 73.454 33.0973 72.7765 32.4224C72.099 31.733 71.5838 31.2448 71.231 30.9576V32.6162C71.231 32.9465 71.2168 33.1978 71.1886 33.3702C71.1745 33.5281 71.111 33.7148 70.9981 33.9302C70.8146 34.3036 70.2712 34.4903 69.3678 34.4903C68.4786 34.4903 67.9352 34.2964 67.7376 33.9087C67.6388 33.6933 67.5753 33.5066 67.547 33.3486C67.5329 33.1763 67.5259 32.925 67.5259 32.5947V19.6917C67.5259 19.3614 67.5329 19.1173 67.547 18.9593C67.5753 18.787 67.6388 18.5931 67.7376 18.3777C67.9352 17.9899 68.4857 17.7961 69.389 17.7961C70.0665 17.7961 70.5464 17.9181 70.8287 18.1623C71.0686 18.3633 71.1957 18.6793 71.2098 19.1101C71.2239 19.2393 71.231 19.4404 71.231 19.7132V26.5417C71.485 26.3263 71.8661 25.9601 72.3742 25.4431C72.8965 24.9261 73.2846 24.5599 73.5387 24.3445L73.7928 24.1722C74.2868 23.7845 74.7102 23.5906 75.0631 23.5906C75.4159 23.5906 75.8182 23.885 76.2699 24.4738C76.7356 25.0482 76.9685 25.5005 76.9685 25.8308C76.9685 26.1611 76.7074 26.5489 76.1852 26.994L74.0892 28.8035Z" fill="#2F57D3"/>
<path d="M62.1526 24.3459C62.2373 23.5417 62.7948 23.1396 63.8252 23.1396C64.3756 23.1396 64.785 23.1827 65.0531 23.2689C65.3213 23.355 65.5048 23.5058 65.6036 23.7212C65.7165 23.9366 65.78 24.1305 65.7942 24.3028C65.8224 24.4608 65.8365 24.7049 65.8365 25.0352V32.5745C65.8365 32.9048 65.8224 33.1561 65.7942 33.3285C65.78 33.4864 65.7236 33.6731 65.6248 33.8885C65.4272 34.2619 64.9402 34.4486 64.1639 34.4486C63.4017 34.4486 62.8866 34.3552 62.6184 34.1686C62.3643 33.9675 62.2161 33.6803 62.1738 33.3069C61.6515 34.068 60.7764 34.4486 59.5485 34.4486C58.3346 34.4486 57.2054 33.8813 56.161 32.7469C55.1165 31.6124 54.5942 30.2984 54.5942 28.8049C54.5942 27.297 55.1165 25.983 56.161 24.8629C57.2196 23.7284 58.3769 23.1612 59.6331 23.1612C60.113 23.1612 60.5506 23.2473 60.9458 23.4196C61.341 23.592 61.6162 23.7571 61.7715 23.9151C61.9268 24.0587 62.0538 24.2023 62.1526 24.3459ZM58.2993 28.8264C58.2993 29.3003 58.4828 29.7311 58.8498 30.1189C59.2168 30.4922 59.6614 30.6789 60.1836 30.6789C60.7059 30.6789 61.1363 30.4851 61.4751 30.0973C61.828 29.7096 62.0044 29.286 62.0044 28.8264C62.0044 28.3525 61.835 27.9145 61.4963 27.5124C61.1716 27.1103 60.727 26.9093 60.1624 26.9093C59.612 26.9093 59.1603 27.1103 58.8074 27.5124C58.4687 27.9145 58.2993 28.3525 58.2993 28.8264Z" fill="#2F57D3"/>
<path d="M42.9865 18.6805H54.758C55.2097 18.6805 55.5414 18.738 55.7531 18.8528C55.9648 18.9534 56.106 19.1185 56.1765 19.3483C56.2471 19.578 56.2824 19.8796 56.2824 20.253C56.2824 20.6264 56.2471 20.9279 56.1765 21.1577C56.106 21.3731 55.986 21.5239 55.8166 21.6101C55.5626 21.7393 55.2026 21.8039 54.7368 21.8039H50.693V32.639C50.693 32.9693 50.6789 33.2134 50.6507 33.3714C50.6366 33.5294 50.573 33.7161 50.4601 33.9315C50.3613 34.1325 50.1778 34.2761 49.9097 34.3623C49.6415 34.4485 49.2886 34.4915 48.8511 34.4915C48.4135 34.4915 48.0607 34.4485 47.7925 34.3623C47.5384 34.2761 47.3549 34.1325 47.242 33.9315C47.1432 33.7161 47.0797 33.5294 47.0515 33.3714C47.0373 33.1991 47.0303 32.9478 47.0303 32.6175V21.8039H42.9653C42.5136 21.8039 42.1819 21.7537 41.9702 21.6532C41.7585 21.5383 41.6174 21.3659 41.5468 21.1362C41.4762 20.9064 41.4409 20.6048 41.4409 20.2315C41.4409 19.8581 41.4762 19.5637 41.5468 19.3483C41.6174 19.1185 41.7373 18.9605 41.9067 18.8744C42.1608 18.7451 42.5207 18.6805 42.9865 18.6805Z" fill="#2F57D3"/>
<path d="M29.298 1.85812C30.1576 0.831907 31.6721 0.709031 32.6808 1.58366C33.6894 2.4583 33.8102 3.99924 32.9505 5.02545L5.20911 38.1419C4.34947 39.1681 2.83493 39.291 1.8263 38.4163C0.817669 37.5417 0.696897 36.0008 1.55654 34.9746L29.298 1.85812Z" fill="#2F57D3"/>
<path d="M37.6036 7.73852C38.4633 6.71231 39.9778 6.58943 40.9864 7.46407C41.9951 8.3387 42.1158 9.87964 41.2562 10.9058L22.4316 33.3778C21.5719 34.404 20.0574 34.5269 19.0488 33.6523C18.0401 32.7776 17.9194 31.2367 18.779 30.2105L37.6036 7.73852Z" fill="#EB6937"/>
</svg>
