<svg width="165" height="87" viewBox="0 0 165 87" fill="none" xmlns="http://www.w3.org/2000/svg">
<path d="M74.8394 60.182H89.8514C90.4274 60.182 90.8504 60.254 91.1204 60.398C91.3904 60.524 91.5704 60.731 91.6604 61.019C91.7504 61.307 91.7954 61.685 91.7954 62.153C91.7954 62.621 91.7504 62.999 91.6604 63.287C91.5704 63.557 91.4174 63.746 91.2014 63.854C90.8774 64.016 90.4184 64.097 89.8244 64.097H84.6674V77.678C84.6674 78.092 84.6494 78.398 84.6134 78.596C84.5954 78.794 84.5144 79.028 84.3704 79.298C84.2444 79.55 84.0104 79.73 83.6684 79.838C83.3264 79.946 82.8764 80 82.3184 80C81.7604 80 81.3104 79.946 80.9684 79.838C80.6444 79.73 80.4104 79.55 80.2664 79.298C80.1404 79.028 80.0594 78.794 80.0234 78.596C80.0054 78.38 79.9964 78.065 79.9964 77.651V64.097H74.8124C74.2364 64.097 73.8134 64.034 73.5434 63.908C73.2734 63.764 73.0934 63.548 73.0034 63.26C72.9134 62.972 72.8684 62.594 72.8684 62.126C72.8684 61.658 72.9134 61.289 73.0034 61.019C73.0934 60.731 73.2464 60.533 73.4624 60.425C73.7864 60.263 74.2454 60.182 74.8394 60.182ZM99.2832 67.283C99.3912 66.275 100.102 65.771 101.416 65.771C102.118 65.771 102.64 65.825 102.982 65.933C103.324 66.041 103.558 66.23 103.684 66.5C103.828 66.77 103.909 67.013 103.927 67.229C103.963 67.427 103.981 67.733 103.981 68.147V77.597C103.981 78.011 103.963 78.326 103.927 78.542C103.909 78.74 103.837 78.974 103.711 79.244C103.459 79.712 102.838 79.946 101.848 79.946C100.876 79.946 100.219 79.829 99.8772 79.595C99.5532 79.343 99.3642 78.983 99.3102 78.515C98.6442 79.469 97.5282 79.946 95.9622 79.946C94.4142 79.946 92.9742 79.235 91.6422 77.813C90.3102 76.391 89.6442 74.744 89.6442 72.872C89.6442 70.982 90.3102 69.335 91.6422 67.931C92.9922 66.509 94.4682 65.798 96.0702 65.798C96.6822 65.798 97.2402 65.906 97.7442 66.122C98.2482 66.338 98.5992 66.545 98.7972 66.743C98.9952 66.923 99.1572 67.103 99.2832 67.283ZM94.3692 72.899C94.3692 73.493 94.6032 74.033 95.0712 74.519C95.5392 74.987 96.1062 75.221 96.7722 75.221C97.4382 75.221 97.9872 74.978 98.4192 74.492C98.8692 74.006 99.0942 73.475 99.0942 72.899C99.0942 72.305 98.8782 71.756 98.4462 71.252C98.0322 70.748 97.4652 70.496 96.7452 70.496C96.0432 70.496 95.4672 70.748 95.0172 71.252C94.5852 71.756 94.3692 72.305 94.3692 72.899ZM114.503 72.872L118.094 75.842C118.544 76.22 118.823 76.508 118.931 76.706C119.057 76.904 119.12 77.093 119.12 77.273C119.12 77.705 118.841 78.29 118.283 79.028C117.671 79.784 117.131 80.162 116.663 80.162C116.267 80.162 115.718 79.901 115.016 79.379L114.746 79.19C114.332 78.848 113.693 78.254 112.829 77.408C111.965 76.544 111.308 75.932 110.858 75.572V77.651C110.858 78.065 110.84 78.38 110.804 78.596C110.786 78.794 110.705 79.028 110.561 79.298C110.327 79.766 109.634 80 108.482 80C107.348 80 106.655 79.757 106.403 79.271C106.277 79.001 106.196 78.767 106.16 78.569C106.142 78.353 106.133 78.038 106.133 77.624V61.451C106.133 61.037 106.142 60.731 106.16 60.533C106.196 60.317 106.277 60.074 106.403 59.804C106.655 59.318 107.357 59.075 108.509 59.075C109.373 59.075 109.985 59.228 110.345 59.534C110.651 59.786 110.813 60.182 110.831 60.722C110.849 60.884 110.858 61.136 110.858 61.478V70.037C111.182 69.767 111.668 69.308 112.316 68.66C112.982 68.012 113.477 67.553 113.801 67.283L114.125 67.067C114.755 66.581 115.295 66.338 115.745 66.338C116.195 66.338 116.708 66.707 117.284 67.445C117.878 68.165 118.175 68.732 118.175 69.146C118.175 69.56 117.842 70.046 117.176 70.604L114.503 72.872ZM120.717 78.731C120.375 78.515 120.204 78.173 120.204 77.705C120.204 77.237 120.546 76.526 121.23 75.572C121.428 75.266 121.743 75.113 122.175 75.113C122.625 75.113 123.228 75.338 123.984 75.788C124.74 76.22 125.424 76.436 126.036 76.436C127.134 76.436 127.683 76.22 127.683 75.788C127.683 75.446 127.08 75.194 125.874 75.032C124.74 74.87 123.615 74.447 122.499 73.763C121.977 73.439 121.545 72.935 121.203 72.251C120.861 71.549 120.69 70.721 120.69 69.767C120.69 66.923 122.643 65.501 126.549 65.501C127.827 65.501 129.141 65.807 130.491 66.419C131.121 66.707 131.436 67.067 131.436 67.499C131.436 67.931 131.238 68.462 130.842 69.092C130.446 69.722 130.041 70.037 129.627 70.037C129.411 70.037 129.006 69.902 128.412 69.632C127.836 69.362 127.206 69.227 126.522 69.227C125.46 69.227 124.929 69.425 124.929 69.821C124.929 70.361 125.541 70.712 126.765 70.874C127.953 71 129.105 71.342 130.221 71.9C130.743 72.152 131.175 72.593 131.517 73.223C131.877 73.835 132.057 74.609 132.057 75.545C132.057 76.481 131.877 77.282 131.517 77.948C131.175 78.596 130.689 79.082 130.059 79.406C128.907 79.964 127.458 80.243 125.712 80.243C123.984 80.243 122.319 79.739 120.717 78.731Z" fill="#2F57D3"/>
<path d="M133.819 68.147C133.819 67.733 133.828 67.427 133.846 67.229C133.882 67.013 133.963 66.77 134.089 66.5C134.341 66.032 135.043 65.798 136.195 65.798C137.059 65.798 137.671 65.951 138.031 66.257C138.337 66.509 138.499 66.896 138.517 67.418C138.535 67.598 138.544 67.859 138.544 68.201V77.651C138.544 78.065 138.526 78.38 138.49 78.596C138.472 78.794 138.391 79.028 138.247 79.298C138.013 79.766 137.32 80 136.168 80C135.034 80 134.341 79.757 134.089 79.271C133.963 79.001 133.882 78.767 133.846 78.569C133.828 78.371 133.819 78.056 133.819 77.624V68.147ZM138.247 63.152C138.121 63.404 137.887 63.584 137.545 63.692C137.203 63.8 136.744 63.854 136.168 63.854C135.61 63.854 135.16 63.8 134.818 63.692C134.476 63.584 134.233 63.395 134.089 63.125C133.963 62.855 133.882 62.621 133.846 62.423C133.828 62.207 133.819 61.892 133.819 61.478C133.819 61.064 133.828 60.758 133.846 60.56C133.882 60.344 133.963 60.11 134.089 59.858C134.341 59.372 135.043 59.129 136.195 59.129C137.329 59.129 138.013 59.372 138.247 59.858C138.391 60.128 138.472 60.371 138.49 60.587C138.526 60.785 138.544 61.091 138.544 61.505C138.544 61.919 138.526 62.234 138.49 62.45C138.472 62.648 138.391 62.882 138.247 63.152ZM140.809 78.731C140.467 78.515 140.296 78.173 140.296 77.705C140.296 77.237 140.638 76.526 141.322 75.572C141.52 75.266 141.835 75.113 142.267 75.113C142.717 75.113 143.32 75.338 144.076 75.788C144.832 76.22 145.516 76.436 146.128 76.436C147.226 76.436 147.775 76.22 147.775 75.788C147.775 75.446 147.172 75.194 145.966 75.032C144.832 74.87 143.707 74.447 142.591 73.763C142.069 73.439 141.637 72.935 141.295 72.251C140.953 71.549 140.782 70.721 140.782 69.767C140.782 66.923 142.735 65.501 146.641 65.501C147.919 65.501 149.233 65.807 150.583 66.419C151.213 66.707 151.528 67.067 151.528 67.499C151.528 67.931 151.33 68.462 150.934 69.092C150.538 69.722 150.133 70.037 149.719 70.037C149.503 70.037 149.098 69.902 148.504 69.632C147.928 69.362 147.298 69.227 146.614 69.227C145.552 69.227 145.021 69.425 145.021 69.821C145.021 70.361 145.633 70.712 146.857 70.874C148.045 71 149.197 71.342 150.313 71.9C150.835 72.152 151.267 72.593 151.609 73.223C151.969 73.835 152.149 74.609 152.149 75.545C152.149 76.481 151.969 77.282 151.609 77.948C151.267 78.596 150.781 79.082 150.151 79.406C148.999 79.964 147.55 80.243 145.804 80.243C144.076 80.243 142.411 79.739 140.809 78.731ZM161.751 70.55L159.996 70.442V74.168C159.996 74.654 160.068 75.005 160.212 75.221C160.374 75.437 160.662 75.545 161.076 75.545C161.508 75.545 161.832 75.563 162.048 75.599C162.282 75.617 162.525 75.698 162.777 75.842C163.191 76.076 163.398 76.679 163.398 77.651C163.398 78.785 163.146 79.478 162.642 79.73C162.372 79.856 162.129 79.937 161.913 79.973C161.715 79.991 161.418 80 161.022 80C159.15 80 157.728 79.577 156.756 78.731C155.784 77.885 155.298 76.454 155.298 74.438V70.442C154.956 70.496 154.587 70.523 154.191 70.523C153.795 70.523 153.462 70.37 153.192 70.064C152.94 69.758 152.814 69.236 152.814 68.498C152.814 67.76 152.859 67.229 152.949 66.905C153.039 66.563 153.165 66.32 153.327 66.176C153.615 65.942 153.975 65.825 154.407 65.825L155.298 65.933V63.152C155.298 62.738 155.307 62.432 155.325 62.234C155.361 62.036 155.451 61.82 155.595 61.586C155.829 61.136 156.522 60.911 157.674 60.911C158.898 60.911 159.627 61.244 159.861 61.91C159.951 62.198 159.996 62.657 159.996 63.287V65.933C160.788 65.861 161.382 65.825 161.778 65.825C162.192 65.825 162.498 65.843 162.696 65.879C162.912 65.897 163.155 65.978 163.425 66.122C163.893 66.356 164.127 67.049 164.127 68.201C164.127 69.335 163.884 70.028 163.398 70.28C163.128 70.406 162.885 70.487 162.669 70.523C162.471 70.541 162.165 70.55 161.751 70.55Z" fill="#EB6937"/>
<rect x="68.2056" width="10.6089" height="105.148" rx="5.30445" transform="rotate(40.4408 68.2056 0)" fill="#2F57D3"/>
<rect x="86.563" y="12.7764" width="10.6089" height="74.7606" rx="5.30445" transform="rotate(40.4408 86.563 12.7764)" fill="#EB6937"/>
</svg>
