<svg width="28" height="28" viewBox="0 0 28 28" fill="none" xmlns="http://www.w3.org/2000/svg">
<g clip-path="url(#clip0_72_1077)">
<path d="M18.872 14.8386C19.8686 14.8386 20.8646 14.8386 21.8612 14.8397C22.3064 14.8397 22.546 15.0048 22.7181 15.4066C23.55 17.348 24.3851 19.2879 25.218 21.2283C25.9474 22.9273 26.6778 24.6264 27.4045 26.327C27.6234 26.8389 27.4688 27.1956 26.911 27.5H13.9938C13.9518 27.4523 13.9237 27.3973 13.921 27.3343C13.9045 26.905 13.8966 26.4758 13.9258 26.047C13.929 26.0031 13.9486 25.9629 13.9736 25.9258C14.0698 25.8231 14.1999 25.8517 14.3194 25.8369C14.8825 25.8332 15.4462 25.8295 16.0093 25.8369C17.1594 25.8305 18.3089 25.83 19.4585 25.8337C20.4545 25.8485 21.4506 25.8364 22.4466 25.839C23.3019 25.8411 24.1572 25.8401 25.0124 25.839C25.3567 25.839 25.3678 25.8226 25.2292 25.4997C24.9344 24.8132 24.6395 24.1267 24.3426 23.4418C24.1545 22.9258 23.9027 22.4362 23.7093 21.9217C22.9694 20.2316 22.2458 18.5347 21.5228 16.8373C21.4113 16.5747 21.2636 16.4842 20.9858 16.489C20.1666 16.5043 19.3464 16.4927 18.5267 16.4959C18.3371 16.4832 18.1442 16.525 17.9573 16.4678C17.8484 16.4101 17.8728 16.3228 17.9222 16.2471C18.2011 15.8168 18.4545 15.3716 18.7275 14.9381C18.7605 14.8863 18.8051 14.8439 18.8726 14.8386H18.872Z" fill="#BBDBFD"/>
<path d="M13.9925 25.9296C13.9925 26.453 13.9925 26.9765 13.993 27.5H1.07579C0.925455 27.3608 0.70659 27.3221 0.601408 27.1035C0.471789 26.8336 0.467539 26.5875 0.582284 26.3218C1.56611 24.0463 2.54781 21.7698 3.53058 19.4938C4.13139 18.1023 4.7338 16.7118 5.33302 15.3203C5.4807 14.9779 5.75163 14.8413 6.10648 14.8402C7.11156 14.8381 8.11664 14.8392 9.12224 14.8392C9.24017 14.8244 9.26196 14.9286 9.30445 14.9959C9.54669 15.3791 9.7714 15.7729 10.0232 16.1508C10.0822 16.2392 10.1688 16.3392 10.0567 16.4535C9.9398 16.5102 9.81443 16.4938 9.69225 16.4943C8.78385 16.4959 7.87546 16.5017 6.9676 16.4906C6.72005 16.4874 6.58777 16.5716 6.4895 16.8024C5.76703 18.5009 5.03341 20.1946 4.30723 21.8916C3.95024 22.6908 3.60176 23.4943 3.27187 24.3057C3.10188 24.7117 2.92445 25.1139 2.7534 25.5188C2.63068 25.8089 2.64715 25.8343 2.95792 25.8348C4.10483 25.8364 5.25121 25.8348 6.39813 25.8359C8.27707 25.8369 10.1555 25.8327 12.0344 25.8375C12.6618 25.8502 13.2897 25.7994 13.9165 25.8655C13.9489 25.8782 13.9739 25.8994 13.9925 25.929V25.9296Z" fill="#DFF3FD"/>
<path d="M18.8718 14.8387C18.5494 15.3637 18.2275 15.8883 17.905 16.4133C17.8747 16.6187 17.718 16.76 17.6373 16.94C16.8856 17.9816 16.1536 19.0376 15.3328 20.0279C15.1251 20.2788 14.9126 20.5254 14.7076 20.7785C14.5764 20.9399 14.4138 21.0569 14.2056 21.0997C14.0813 21.1251 13.975 21.1103 13.932 20.9664C13.8991 20.8271 13.9081 20.6864 13.9081 20.5461C13.9076 17.1919 13.9076 13.8383 13.9081 10.4841C13.9081 10.3439 13.898 10.2031 13.9331 10.0655C14.0239 9.86116 14.2274 9.90244 14.3899 9.86963C15.004 9.7463 15.506 9.45307 15.8715 8.94018C16.8521 7.56242 16.0495 5.63842 14.3782 5.35366C14.2226 5.32719 14.0329 5.35631 13.9378 5.17158C13.9081 5.07737 13.9091 4.97998 13.9086 4.88364C13.9076 3.54717 13.907 2.21122 13.9091 0.874743C13.9091 0.745065 13.8911 0.607977 13.9947 0.5C16.5477 0.51482 18.5478 1.57342 19.9237 3.71337C20.9558 5.31873 21.2836 7.11199 21.0918 8.99629C20.9314 10.5688 20.3221 12.0011 19.6304 13.4016C19.3909 13.887 19.1258 14.3602 18.8724 14.8392L18.8718 14.8387Z" fill="#FF4929"/>
<path d="M13.9946 0.500013C13.9946 2.07679 13.9946 3.65357 13.9946 5.23035C13.8857 5.34362 13.7333 5.32244 13.5994 5.34891C12.4631 5.57439 11.6806 6.49272 11.6806 7.6106C11.6806 8.72794 12.4663 9.65157 13.5994 9.87599C13.7333 9.90245 13.8857 9.88128 13.9946 9.99455C13.9952 13.6816 13.9957 17.3687 13.9962 21.0558C13.9883 21.0659 13.9803 21.0759 13.9723 21.0865C13.6934 21.1569 13.5033 21.0018 13.337 20.8192C12.9912 20.4392 12.6783 20.0316 12.3574 19.6309C12.0169 19.207 11.7019 18.7629 11.3651 18.3358C10.9932 17.7927 10.5916 17.2708 10.2341 16.7177C10.1741 16.6245 10.0838 16.5414 10.1002 16.4133C9.77406 15.8883 9.44789 15.3637 9.12171 14.8387C8.60111 13.8653 8.07148 12.8962 7.66775 11.8656C7.16468 10.5821 6.79017 9.27259 6.85126 7.8763C6.9437 5.76123 7.56098 3.85258 9.1419 2.35785C10.4965 1.07906 12.1369 0.496837 13.9946 0.500013Z" fill="#FF5A3D"/>
<path d="M13.9961 21.0563C14.2936 21.0864 14.4944 20.925 14.6708 20.7175C15.6392 19.5801 16.545 18.395 17.388 17.1622C17.447 17.076 17.498 16.9817 17.5899 16.923C17.8592 16.6679 18.1933 16.5361 18.5413 16.4318C19.4486 16.4286 20.356 16.4286 21.2633 16.4191C21.3972 16.4175 21.4455 16.4816 21.4912 16.5869C22.2492 18.359 23.01 20.1305 23.7701 21.9016C23.6421 22.0688 23.4498 22.1466 23.2713 22.235C21.9162 22.9078 20.5833 23.6239 19.2335 24.3067C18.3309 24.7629 17.4401 25.242 16.538 25.6993C16.3734 25.7829 16.2071 25.8607 16.0275 25.9078C15.4554 25.9089 14.8833 25.9099 14.3112 25.911C14.1459 25.8289 14.0105 25.7167 13.9361 25.5421C13.9276 25.5114 13.9228 25.4807 13.9202 25.4494C13.8936 24.0802 13.9122 22.7114 13.9106 21.3426C13.9106 21.2463 13.9149 21.1478 13.9919 21.0732L13.9956 21.0563H13.9961Z" fill="#0EAA61"/>
<path d="M16.0278 25.9089C17.0627 25.369 18.0954 24.8259 19.1318 24.2903C20.6766 23.4916 22.224 22.6982 23.7704 21.9021C23.9734 22.3906 24.1763 22.8787 24.3792 23.3672C24.3043 23.526 24.1423 23.5694 24.0042 23.6387C22.5895 24.349 21.1929 25.0932 19.7825 25.8115C19.6864 25.8607 19.5828 25.8766 19.4834 25.9099C18.3318 25.9099 17.1795 25.9089 16.0278 25.9089Z" fill="#FBBD29"/>
<path d="M19.4834 25.9099C20.3206 25.4717 21.1573 25.0313 21.9961 24.5957C22.7892 24.1839 23.585 23.7769 24.3792 23.3672C24.7489 24.2061 25.1192 25.0456 25.5 25.9099C23.4639 25.9099 21.4734 25.9099 19.4834 25.9099Z" fill="#159AE0"/>
<path d="M18.5418 16.4318C18.2246 16.5954 17.9075 16.7594 17.5903 16.923C17.6525 16.7272 17.7805 16.5715 17.9048 16.4138C18.1168 16.4196 18.3293 16.426 18.5412 16.4318H18.5418Z" fill="#F9BC2A"/>
<path d="M13.9985 25.6024C14.1202 25.6882 14.2222 25.794 14.3114 25.9121C14.2052 25.9179 14.0989 25.9237 13.9927 25.9301V25.9089C13.9119 25.8051 13.9061 25.703 13.9985 25.6029V25.6024Z" fill="#F9BA98"/>
<path d="M13.9983 25.6025C13.9962 25.7046 13.9946 25.8068 13.9925 25.9084C13.3444 25.9084 12.6963 25.909 12.0482 25.9095C11.9053 25.8687 11.8129 25.7608 11.7135 25.6618C10.5496 24.5021 9.38569 23.3419 8.22178 22.1827C7.93758 21.9001 7.93811 21.9016 7.59387 22.0827C6.26263 22.7819 4.92288 23.4647 3.57623 24.1337C3.47264 24.185 3.37436 24.2856 3.2373 24.2231C3.56613 23.452 3.89496 22.6808 4.22379 21.9096C4.31144 21.8519 4.39378 21.7873 4.48993 21.7407C5.75159 21.1305 6.99253 20.4789 8.23931 19.839C9.17214 19.3605 10.1225 18.9148 11.0399 18.4056C11.1504 18.3442 11.2604 18.2484 11.4075 18.3061C11.7348 18.7306 12.0625 19.1556 12.3898 19.5801C12.1736 19.795 11.8899 19.903 11.6275 20.0406C11.0654 20.3349 10.4933 20.6102 9.92542 20.8933C9.68566 21.013 9.65786 21.1647 9.84201 21.3485C11.1451 22.6474 12.4487 23.9458 13.7524 25.2447C13.8459 25.3378 13.9457 25.4262 13.9856 25.5586C13.9893 25.5734 13.9935 25.5882 13.9988 25.603L13.9983 25.6025Z" fill="#FDD841"/>
<path d="M3.23629 24.2231C4.23286 23.7213 5.22997 23.2206 6.22602 22.7172C6.75193 22.4515 7.27678 22.1842 7.7995 21.9122C7.91372 21.8524 7.99181 21.8418 8.09646 21.9466C9.40168 23.2555 10.7127 24.5592 12.0217 25.865C12.0334 25.8766 12.0397 25.8946 12.0482 25.9094C10.2341 25.9121 8.42051 25.9152 6.60637 25.9168C5.25069 25.9179 3.89447 25.9168 2.48779 25.9168C2.74544 25.3341 2.99086 24.7783 3.23629 24.2225V24.2231Z" fill="#159AE0"/>
<path d="M11.4069 18.3061C9.17207 19.4431 6.93774 20.5805 4.70129 21.7143C4.5483 21.7916 4.41124 21.9159 4.22266 21.9101C4.98603 20.1312 5.75152 18.3538 6.50798 16.5722C6.57385 16.4176 6.67319 16.4224 6.79856 16.4218C7.89926 16.4208 8.99942 16.4171 10.1001 16.4144C10.5357 17.0454 10.9713 17.6757 11.4064 18.3067L11.4069 18.3061Z" fill="#0EAA61"/>
<path d="M13.9853 25.558C13.4349 25.0155 12.883 24.4745 12.3342 23.9294C11.4301 23.0311 10.5307 22.1287 9.62337 21.2336C9.49269 21.1045 9.48897 21.0452 9.66109 20.9595C10.5732 20.5043 11.4805 20.0406 12.3895 19.5796C12.696 19.949 13.0089 20.3137 13.3074 20.6895C13.4864 20.9155 13.7048 21.0505 13.9927 21.0727C13.99 22.5675 13.9879 24.0622 13.9853 25.5575V25.558Z" fill="#5DC882"/>
</g>
<defs>
<clipPath id="clip0_72_1077">
<rect width="27" height="27" fill="white" transform="translate(0.5 0.5)"/>
</clipPath>
</defs>
</svg>
