<svg width="24" height="25" viewBox="0 0 24 25" fill="none" xmlns="http://www.w3.org/2000/svg">
<path d="M12 18.51C8.83 18.51 6.25 15.93 6.25 12.76C6.25 11.62 6.58 10.51 7.22 9.57C7.45 9.23 7.91999 9.13 8.25999 9.36C8.59999 9.59 8.7 10.06 8.47 10.4C8 11.1 7.75999 11.92 7.75999 12.76C7.75999 15.1 9.66999 17.01 12.01 17.01C14.35 17.01 16.26 15.1 16.26 12.76C16.26 10.42 14.35 8.51 12.01 8.51C11.51 8.51 11.03 8.58 10.56 8.72C10.17 8.84 9.75 8.62 9.62 8.22C9.5 7.82 9.72 7.4 10.12 7.28C10.73 7.09 11.36 7 12.01 7C15.18 7 17.76 9.58 17.76 12.75C17.76 15.92 15.17 18.51 12 18.51Z" fill="#292D32"/>
<path d="M9.62009 8.89999C9.45009 8.89999 9.2701 8.83999 9.1301 8.71999C8.8201 8.44999 8.79009 7.96999 9.06009 7.65999L10.7301 5.74999C11.0001 5.43999 11.4801 5.39999 11.7901 5.67999C12.1001 5.94999 12.1301 6.42999 11.8601 6.73999L10.1901 8.64999C10.0301 8.80999 9.83009 8.89999 9.62009 8.89999Z" fill="#292D32"/>
<path d="M11.5598 10.32C11.4098 10.32 11.2498 10.27 11.1198 10.18L9.17976 8.75998C8.84976 8.51998 8.76977 8.04998 9.01977 7.70998C9.25977 7.37998 9.72978 7.29998 10.0698 7.54998L12.0098 8.96998C12.3398 9.20998 12.4198 9.67998 12.1698 10.02C12.0198 10.21 11.7898 10.32 11.5598 10.32Z" fill="#292D32"/>
<path d="M15 23.25H9C3.57 23.25 1.25 20.93 1.25 15.5V9.5C1.25 4.07 3.57 1.75 9 1.75H15C20.43 1.75 22.75 4.07 22.75 9.5V15.5C22.75 20.93 20.43 23.25 15 23.25ZM9 3.25C4.39 3.25 2.75 4.89 2.75 9.5V15.5C2.75 20.11 4.39 21.75 9 21.75H15C19.61 21.75 21.25 20.11 21.25 15.5V9.5C21.25 4.89 19.61 3.25 15 3.25H9Z" fill="#292D32"/>
</svg>
