<svg width="16" height="13" viewBox="0 0 16 13" fill="none" xmlns="http://www.w3.org/2000/svg">
<path d="M1.28154 6.06226L1.28898 6.05936L1.29632 6.05622C5.59193 4.22135 8.45211 3.0135 9.88065 2.43096C11.9282 1.59599 13.1531 1.1108 13.9339 0.833026C14.723 0.552286 15.0074 0.503291 15.1963 0.500027C15.2186 0.499642 15.2759 0.502753 15.3386 0.517445C15.4047 0.532936 15.4384 0.552283 15.4473 0.559322C15.4503 0.561701 15.4526 0.563744 15.4568 0.572887C15.4626 0.585681 15.4689 0.606112 15.4757 0.645189C15.4816 0.679022 15.4908 0.751885 15.4961 0.840342C15.5014 0.929351 15.5015 1.01506 15.4952 1.07953C15.276 3.33759 14.321 8.85903 13.8326 11.419C13.6364 12.4472 13.3119 12.492 13.2719 12.4956C12.9887 12.5211 12.7185 12.4351 12.3894 12.2455C12.2232 12.1498 12.053 12.0343 11.8626 11.9017C11.8321 11.8804 11.8009 11.8586 11.7692 11.8365C11.6087 11.7243 11.4347 11.6026 11.2533 11.486C10.6088 11.0718 10.1045 10.7358 9.60234 10.4006L9.53548 10.3559C9.05541 10.0354 8.57123 9.71215 7.96637 9.32136C7.62817 9.10286 7.49927 8.95091 7.45569 8.86909C7.43226 8.82509 7.43148 8.80922 7.45376 8.75943C7.49195 8.67406 7.58314 8.55633 7.76163 8.37826C7.83719 8.30288 7.91891 8.22563 8.00951 8.13999C8.02108 8.12906 8.03279 8.11799 8.04465 8.10677C8.14717 8.0098 8.25845 7.90388 8.36911 7.7912C8.36903 7.79128 8.36921 7.7911 8.36968 7.79062C8.37039 7.78993 8.37173 7.78859 8.37388 7.78651L8.38763 7.77329C8.39932 7.76217 8.41462 7.74779 8.43368 7.73004C8.47177 7.69456 8.52228 7.64802 8.58397 7.59147C8.69507 7.48962 8.83972 7.35777 9.00833 7.20408L9.06476 7.15265C9.44979 6.80169 9.94492 6.35005 10.4358 5.8955C10.926 5.44165 11.4155 4.98169 11.7882 4.6146C11.9739 4.43174 12.1356 4.26697 12.2554 4.13521C12.3147 4.06999 12.3698 4.00622 12.4139 3.9485C12.4358 3.91984 12.4601 3.88611 12.4821 3.84984C12.4989 3.8221 12.5375 3.75616 12.5582 3.66969C12.5786 3.58438 12.5843 3.47426 12.5678 3.36478C12.5511 3.25474 12.4998 3.06734 12.3319 2.92101C12.1675 2.77775 11.9809 2.74864 11.8568 2.74768C11.7426 2.74681 11.6394 2.76983 11.594 2.77997L11.5897 2.78092C11.5114 2.79835 11.4408 2.83551 11.4237 2.84453C11.4227 2.84508 11.4218 2.84552 11.4212 2.84585C11.3876 2.86326 11.3489 2.88499 11.3075 2.909C11.2239 2.95755 11.1115 3.02594 10.9724 3.11255C10.6934 3.28637 10.2939 3.54181 9.77528 3.87786C8.73746 4.55039 7.21474 5.551 5.20795 6.87911L5.20794 6.8791L5.20466 6.8813C4.66289 7.24604 4.23189 7.38189 3.89675 7.37479C3.69326 7.37048 3.35507 7.30994 2.94526 7.20919C2.54682 7.11123 2.11717 6.98466 1.7478 6.86694C1.61902 6.8259 1.49994 6.78914 1.38984 6.75516C1.07274 6.65728 0.8301 6.58239 0.644482 6.49424C0.603095 6.47458 0.57145 6.45723 0.547514 6.44265C0.561039 6.43131 0.577406 6.41843 0.597137 6.40407C0.72982 6.30746 0.95037 6.19138 1.28154 6.06226Z" fill="black" stroke="black"/>
</svg>
