<svg width="15" height="17" viewBox="0 0 15 17" fill="none" xmlns="http://www.w3.org/2000/svg">
<path d="M14.5 4.6577V6.54296C13.6959 6.46577 12.9076 6.2704 12.1897 5.93588L12.1898 5.93584L12.1834 5.93298C11.8094 5.76499 11.4542 5.54842 11.0838 5.30993L10.3163 4.81584L10.3131 5.72861C10.3104 6.50857 10.3108 7.28593 10.3111 8.06176C10.3117 9.34727 10.3122 10.6286 10.2989 11.9108C10.2446 12.8094 9.94348 13.6976 9.4209 14.4281L9.42085 14.428L9.41659 14.4342C8.56511 15.663 7.08133 16.4672 5.5675 16.4928L5.55797 16.4929L5.54845 16.4935C4.62588 16.5443 3.69319 16.2964 2.89203 15.8308L2.8917 15.8306C1.57571 15.0673 0.653706 13.6694 0.514106 12.1854C0.500503 11.8464 0.494194 11.5166 0.506855 11.1977C0.626957 9.98754 1.23855 8.82462 2.18463 8.03346L2.18465 8.03349L2.18861 8.0301C3.17078 7.19121 4.50606 6.75064 5.79116 6.86727C5.79144 7.31638 5.78353 7.75712 5.77554 8.20291C5.77102 8.45465 5.76648 8.70801 5.76336 8.9654C5.09686 8.89621 4.39147 9.02956 3.81146 9.42123C3.26766 9.7715 2.85781 10.3022 2.64187 10.898C2.47334 11.3111 2.49082 11.7645 2.50301 12.0808C2.50506 12.134 2.50696 12.1834 2.5078 12.228L2.50841 12.2602L2.51315 12.2921C2.72087 13.6897 4.06618 14.8702 5.54968 14.7512C6.52917 14.7354 7.44423 14.1794 7.94325 13.3746L7.94339 13.3747L7.94993 13.3635C7.95931 13.3474 7.9695 13.3303 7.98032 13.3121C8.10107 13.109 8.29985 12.7748 8.31284 12.3819C8.36635 11.4341 8.36464 10.4844 8.36295 9.55012C8.36236 9.22008 8.36176 8.89194 8.36361 8.56648L8.36362 8.5649C8.36632 7.49123 8.36598 6.42044 8.36564 5.35111C8.36513 3.73524 8.36462 2.12269 8.37462 0.508476C8.77174 0.505158 9.16614 0.504573 9.56198 0.503987C9.78622 0.503654 10.0109 0.503321 10.2369 0.50249C10.3783 1.52841 10.8075 2.55731 11.603 3.31394C12.404 4.09431 13.4678 4.48657 14.5 4.6577Z" stroke="black"/>
</svg>
